<svg xmlns="http://www.w3.org/2000/svg" xmlns:xlink="http://www.w3.org/1999/xlink" width="2000" zoomAndPan="magnify" viewBox="0 0 1500 1499.999933" height="2000" preserveAspectRatio="xMidYMid meet" version="1.0"><defs><clipPath id="1e5326bfdc"><path d="M 499 570 L 909 570 L 909 915 L 499 915 Z M 499 570 " clip-rule="nonzero"/></clipPath><clipPath id="8dd2f4d59d"><path d="M 1316.125 569.785156 L 183.867188 569.785156 C 179.3125 569.785156 175.617188 573.480469 175.617188 578.035156 L 175.617188 921.960938 C 175.617188 926.515625 179.3125 930.210938 183.867188 930.210938 L 1316.125 930.210938 C 1320.683594 930.210938 1324.375 926.515625 1324.375 921.960938 L 1324.375 578.035156 C 1324.375 573.480469 1320.683594 569.785156 1316.125 569.785156 Z M 1316.125 569.785156 " clip-rule="nonzero"/></clipPath><clipPath id="5c3814a557"><path d="M 796 570 L 1319 570 L 1319 915 L 796 915 Z M 796 570 " clip-rule="nonzero"/></clipPath><clipPath id="5efdb430fa"><path d="M 1316.125 569.785156 L 183.867188 569.785156 C 179.3125 569.785156 175.617188 573.480469 175.617188 578.035156 L 175.617188 921.960938 C 175.617188 926.515625 179.3125 930.210938 183.867188 930.210938 L 1316.125 930.210938 C 1320.683594 930.210938 1324.375 926.515625 1324.375 921.960938 L 1324.375 578.035156 C 1324.375 573.480469 1320.683594 569.785156 1316.125 569.785156 Z M 1316.125 569.785156 " clip-rule="nonzero"/></clipPath><clipPath id="532247a3bc"><path d="M 181 570 L 591 570 L 591 915 L 181 915 Z M 181 570 " clip-rule="nonzero"/></clipPath><clipPath id="444c58b843"><path d="M 1316.125 569.785156 L 183.867188 569.785156 C 179.3125 569.785156 175.617188 573.480469 175.617188 578.035156 L 175.617188 921.960938 C 175.617188 926.515625 179.3125 930.210938 183.867188 930.210938 L 1316.125 930.210938 C 1320.683594 930.210938 1324.375 926.515625 1324.375 921.960938 L 1324.375 578.035156 C 1324.375 573.480469 1320.683594 569.785156 1316.125 569.785156 Z M 1316.125 569.785156 " clip-rule="nonzero"/></clipPath><clipPath id="81fb482c83"><path d="M 478 570 L 1001 570 L 1001 915 L 478 915 Z M 478 570 " clip-rule="nonzero"/></clipPath><clipPath id="0a88cc7f62"><path d="M 1316.125 569.785156 L 183.867188 569.785156 C 179.3125 569.785156 175.617188 573.480469 175.617188 578.035156 L 175.617188 921.960938 C 175.617188 926.515625 179.3125 930.210938 183.867188 930.210938 L 1316.125 930.210938 C 1320.683594 930.210938 1324.375 926.515625 1324.375 921.960938 L 1324.375 578.035156 C 1324.375 573.480469 1320.683594 569.785156 1316.125 569.785156 Z M 1316.125 569.785156 " clip-rule="nonzero"/></clipPath></defs><rect x="-150" width="1800" fill="#ffffff" y="-149.999993" height="1799.99992" fill-opacity="1"/><rect x="-150" width="1800" fill="#ffffff" y="-149.999993" height="1799.99992" fill-opacity="1"/><g clip-path="url(#1e5326bfdc)"><g clip-path="url(#8dd2f4d59d)"><path fill="#dd390d" d="M 499.269531 867.527344 L 796.5625 570.234375 L 908.941406 682.613281 L 724.03125 867.527344 C 662.019531 929.535156 561.28125 929.535156 499.269531 867.527344 Z M 499.269531 867.527344 " fill-opacity="1" fill-rule="nonzero"/></g></g><g clip-path="url(#5c3814a557)"><g clip-path="url(#5efdb430fa)"><path fill="#0087f6" d="M 1093.855469 867.527344 L 796.5625 570.234375 L 1021.324219 570.234375 L 1318.613281 867.527344 C 1256.605469 929.761719 1155.867188 929.761719 1093.855469 867.527344 Z M 1093.855469 867.527344 " fill-opacity="1" fill-rule="nonzero"/></g></g><g clip-path="url(#532247a3bc)"><g clip-path="url(#444c58b843)"><path fill="#dd390d" d="M 181.382812 867.527344 L 478.453125 570.234375 L 590.832031 682.613281 L 405.917969 867.527344 C 344.132812 929.535156 243.394531 929.535156 181.382812 867.527344 Z M 181.382812 867.527344 " fill-opacity="1" fill-rule="nonzero"/></g></g><g clip-path="url(#81fb482c83)"><g clip-path="url(#0a88cc7f62)"><path fill="#f7941d" d="M 775.96875 867.527344 L 478.453125 570.234375 L 703.210938 570.234375 L 1000.726562 867.527344 C 938.71875 929.761719 837.976562 929.761719 775.96875 867.527344 Z M 775.96875 867.527344 " fill-opacity="1" fill-rule="nonzero"/></g></g><path stroke-linecap="butt" transform="matrix(0.75, 0, 0, 0.75, 509.999989, 265.314099)" fill="none" stroke-linejoin="miter" d="M 0.000014104 1.997869 L 640.000069 1.997869 " stroke="#ffffff" stroke-width="4" stroke-opacity="1" stroke-miterlimit="4"/></svg>